<svg width="295" height="259" viewBox="0 0 295 259" fill="none" xmlns="http://www.w3.org/2000/svg">
<path d="M157.211 81.2702C126.033 81.2702 104.87 97.1667 104.87 121.897C104.87 137.111 111.195 149.303 123.415 157.147C124.23 157.671 125.192 157.75 124.831 159.257C123.374 165.351 120.84 176.208 120.84 176.208C120.733 176.668 120.905 177.148 121.28 177.436C121.654 177.721 122.162 177.763 122.579 177.539C122.579 177.539 140.464 166.941 142.849 165.616C148.413 162.436 153.205 161.819 156.804 161.819C181.532 161.819 209.09 151.925 209.09 121.631C209.09 98.1362 190.154 81.2702 157.211 81.2702ZM132.739 129.907C129.306 129.907 126.525 127.125 126.525 123.693C126.525 120.261 129.306 117.477 132.739 117.477C136.173 117.477 138.955 120.261 138.955 123.693C138.955 127.125 136.173 129.907 132.739 129.907ZM156.979 129.907C153.547 129.907 150.765 127.125 150.765 123.693C150.765 120.261 153.546 117.477 156.979 117.477C160.413 117.477 163.195 120.261 163.195 123.693C163.195 127.125 160.413 129.907 156.979 129.907ZM181.221 129.907C177.789 129.907 175.005 127.125 175.005 123.693C175.005 120.261 177.789 117.477 181.221 117.477C184.656 117.477 187.437 120.261 187.437 123.693C187.437 127.125 184.656 129.907 181.221 129.907Z" fill="#4B4B4B"/>
<path d="M162.212 7.7501C194.663 9.06059 223.93 23.119 244.96 44.9918C266.02 66.8465 279.007 96.7097 279 129.453C279.007 163.042 265.34 193.589 243.321 215.587C221.323 237.602 190.776 251.269 157.191 251.262C123.598 251.269 93.058 237.602 71.0603 215.586C49.041 193.589 35.3742 163.042 35.3814 129.453C35.3814 122.912 35.9391 116.496 36.9385 110.219L65.0681 124.106C64.967 125.873 64.9123 127.656 64.9123 129.453C64.9196 154.983 75.2193 177.957 91.9384 194.706C108.68 211.429 131.666 221.724 157.191 221.732C182.717 221.725 205.695 211.429 222.444 194.706C239.163 177.957 249.462 154.982 249.47 129.453C249.462 104.561 239.676 82.1019 223.688 65.4705C207.679 48.8572 185.63 38.2608 161.012 37.2583C152.872 36.925 146.533 30.0511 146.862 21.9039C147.191 13.7598 154.065 7.42093 162.212 7.7501Z" fill="#767676"/>
<path d="M80.6171 47.0117C82.3956 45.6976 84.9361 45.5624 87.1247 46.6309L69.7093 82.4433L16.2045 97.5868C15.8753 95.6541 16.6224 93.7916 18.196 92.6456L80.6171 47.0117Z" fill="#36C5F0"/>
<path d="M92.0802 129.138C92.124 131.077 91.0988 132.805 89.3642 133.727L69.27 82.2457L86.6855 46.4333C88.8597 47.5204 90.2867 49.6213 90.3456 51.8321L92.0802 129.138Z" fill="#2EB67D"/>
<path d="M83.8977 133.471L66.3087 124.789L52.2439 117.846L69.6594 82.0332L89.7536 133.515C88.0262 134.426 85.8077 134.412 83.8977 133.471Z" fill="#ECB22E"/>
<path d="M19.7221 101.807C17.8043 100.862 16.4428 99.1162 16.1281 97.1767L69.6328 82.0332L52.2174 117.846L38.1525 110.902L19.7221 101.807Z" fill="#E01E5A"/>
</svg>
